<svg width="90" height="26" viewBox="0 0 90 26" fill="none" xmlns="http://www.w3.org/2000/svg">
<path d="M5.016 20.2793V7.8713H0.096V3.4793H15.6V7.8713H10.68V20.2793H5.016ZM16.9031 20.2793V7.1513H22.3271V20.2793H16.9031ZM19.6151 6.0953C18.6231 6.0953 17.8311 5.8313 17.2391 5.3033C16.6471 4.7753 16.3511 4.1193 16.3511 3.3353C16.3511 2.5513 16.6471 1.8953 17.2391 1.3673C17.8311 0.839296 18.6231 0.575296 19.6151 0.575296C20.6071 0.575296 21.3991 0.823296 21.9911 1.3193C22.5831 1.8153 22.8791 2.4553 22.8791 3.2393C22.8791 4.0713 22.5831 4.7593 21.9911 5.3033C21.3991 5.8313 20.6071 6.0953 19.6151 6.0953ZM31.7873 20.5193C30.2833 20.5193 28.9473 20.2313 27.7793 19.6553C26.6113 19.0793 25.6913 18.2793 25.0193 17.2553C24.3633 16.2153 24.0353 15.0313 24.0353 13.7033C24.0353 12.3753 24.3633 11.1993 25.0193 10.1753C25.6913 9.1513 26.6113 8.3513 27.7793 7.7753C28.9473 7.1993 30.2833 6.9113 31.7873 6.9113C33.3873 6.9113 34.7553 7.2553 35.8913 7.9433C37.0273 8.6313 37.8113 9.5833 38.2433 10.7993L34.0433 12.8633C33.7713 12.2553 33.4353 11.8153 33.0353 11.5433C32.6513 11.2713 32.2273 11.1353 31.7633 11.1353C31.3633 11.1353 30.9873 11.2313 30.6353 11.4233C30.2993 11.6153 30.0273 11.9033 29.8193 12.2873C29.6273 12.6553 29.5312 13.1273 29.5312 13.7033C29.5312 14.2793 29.6273 14.7593 29.8193 15.1433C30.0273 15.5273 30.2993 15.8153 30.6353 16.0073C30.9873 16.1993 31.3633 16.2953 31.7633 16.2953C32.2273 16.2953 32.6513 16.1593 33.0353 15.8873C33.4353 15.6153 33.7713 15.1753 34.0433 14.5673L38.2433 16.6313C37.8113 17.8473 37.0273 18.7993 35.8913 19.4873C34.7553 20.1753 33.3873 20.5193 31.7873 20.5193ZM44.0329 18.1193L44.1529 11.7353L48.6889 7.1513H55.0969L49.0969 13.4393L46.3849 15.6233L44.0329 18.1193ZM39.4969 20.2793V2.4713H44.9209V20.2793H39.4969ZM48.9769 20.2793L45.3769 15.7193L48.7129 11.6153L55.5289 20.2793H48.9769ZM56.6063 20.2793V7.1513H62.0303V20.2793H56.6063ZM59.3183 6.0953C58.3263 6.0953 57.5343 5.8313 56.9423 5.3033C56.3503 4.7753 56.0543 4.1193 56.0543 3.3353C56.0543 2.5513 56.3503 1.8953 56.9423 1.3673C57.5343 0.839296 58.3263 0.575296 59.3183 0.575296C60.3103 0.575296 61.1023 0.823296 61.6943 1.3193C62.2863 1.8153 62.5823 2.4553 62.5823 3.2393C62.5823 4.0713 62.2863 4.7593 61.6943 5.3033C61.1023 5.8313 60.3103 6.0953 59.3183 6.0953ZM70.7704 20.5193C68.9624 20.5193 67.5544 20.0873 66.5464 19.2233C65.5384 18.3433 65.0344 16.9993 65.0344 15.1913V4.1993H70.4584V15.1433C70.4584 15.5433 70.5624 15.8553 70.7704 16.0793C70.9944 16.3033 71.2664 16.4153 71.5864 16.4153C72.0504 16.4153 72.4584 16.2953 72.8104 16.0553L74.1064 19.8233C73.6904 20.0633 73.1864 20.2393 72.5944 20.3513C72.0184 20.4633 71.4104 20.5193 70.7704 20.5193ZM63.2344 11.8313V7.8713H73.1464V11.8313H63.2344ZM78.1191 25.1753C77.3991 25.1753 76.6631 25.0633 75.9111 24.8393C75.1751 24.6313 74.5831 24.3513 74.1351 23.9993L75.9351 20.2793C76.2071 20.4873 76.5111 20.6553 76.8471 20.7833C77.1991 20.9113 77.5351 20.9753 77.8551 20.9753C78.3351 20.9753 78.7031 20.8713 78.9591 20.6633C79.2151 20.4713 79.4231 20.1753 79.5831 19.7753L80.1351 18.3833L80.5191 17.8553L84.7191 7.1513H89.8551L84.4551 20.5433C83.9751 21.7433 83.4151 22.6793 82.7751 23.3513C82.1511 24.0233 81.4471 24.4953 80.6631 24.7673C79.8951 25.0393 79.0471 25.1753 78.1191 25.1753ZM79.3911 20.8793L73.6791 7.1513H79.2471L83.1831 17.3753L79.3911 20.8793Z" fill="#4A5CFF"/>
</svg>
